<svg width="191" height="127" viewBox="0 0 191 127" fill="none" xmlns="http://www.w3.org/2000/svg">
<path d="M42.7648 127C33.7153 127 26.0072 124.525 19.6406 119.576C13.2739 114.586 8.40881 107.362 5.04528 97.9059C1.68176 88.4091 0 76.9404 0 63.5C0 50.1401 1.68176 38.7318 5.04528 29.2752C8.44885 19.7784 13.334 12.535 19.7006 7.54515C26.1073 2.51505 33.7954 0 42.7648 0C51.7342 0 59.4022 2.51505 65.7689 7.54515C72.1756 12.535 77.0607 19.7784 80.4242 29.2752C83.8278 38.7318 85.5296 50.1401 85.5296 63.5C85.5296 76.9404 83.8478 88.4091 80.4843 97.9059C77.1207 107.362 72.2557 114.586 65.889 119.576C59.5223 124.525 51.8143 127 42.7648 127ZM42.7648 113.721C51.7342 113.721 58.7015 109.375 63.6667 100.683C68.6319 91.9905 71.1145 79.5963 71.1145 63.5C71.1145 52.7959 69.9733 43.6814 67.6909 36.1564C65.4485 28.6313 62.2051 22.897 57.9607 18.9534C53.7563 15.0098 48.691 13.038 42.7648 13.038C33.8755 13.038 26.9282 17.4444 21.923 26.2571C16.9177 35.0296 14.4151 47.4439 14.4151 63.5C14.4151 74.2041 15.5363 83.2985 17.7786 90.7833C20.021 98.2681 23.2443 103.962 27.4487 107.865C31.6932 111.769 36.7985 113.721 42.7648 113.721Z" fill="#EA3426"/>
<path d="M144.631 103.58V23.903H158.086V103.58H144.631ZM111.717 70.5019V56.981H191V70.5019H111.717Z" fill="#EA3426"/>
</svg>
