<svg width="46" height="30" viewBox="0 0 46 30" fill="none" xmlns="http://www.w3.org/2000/svg">
<path d="M10.1124 30C7.97249 30 6.1498 29.4154 4.64431 28.2462C3.13881 27.0675 1.98839 25.3612 1.19303 23.1274C0.397678 20.884 0 18.1749 0 15C0 11.8441 0.397678 9.14924 1.19303 6.9154C1.99786 4.67205 3.15302 2.96103 4.65851 1.78232C6.17347 0.594106 7.99143 0 10.1124 0C12.2333 0 14.0465 0.594106 15.552 1.78232C17.067 2.96103 18.2222 4.67205 19.0175 6.9154C19.8223 9.14924 20.2248 11.8441 20.2248 15C20.2248 18.1749 19.8271 20.884 19.0317 23.1274C18.2364 25.3612 17.0859 27.0675 15.5804 28.2462C14.075 29.4154 12.2523 30 10.1124 30ZM10.1124 26.8631C12.2333 26.8631 13.8808 25.8365 15.0549 23.7833C16.229 21.73 16.8161 18.8023 16.8161 15C16.8161 12.4715 16.5462 10.3184 16.0065 8.54087C15.4763 6.76331 14.7093 5.40875 13.7057 4.47719C12.7115 3.54563 11.5137 3.07985 10.1124 3.07985C8.01037 3.07985 6.36758 4.12072 5.18401 6.20247C4.00045 8.27471 3.40867 11.2072 3.40867 15C3.40867 17.5285 3.67379 19.6768 4.20402 21.4449C4.73426 23.2129 5.49648 24.558 6.49067 25.48C7.49433 26.4021 8.70157 26.8631 10.1124 26.8631Z" fill="#BFBFBF"/>
<path d="M34.2003 24.4677V5.64639H37.3817V24.4677H34.2003ZM26.4172 16.654V13.4601H45.1648V16.654H26.4172Z" fill="#BFBFBF"/>
</svg>
